<mxfile host="app.diagrams.net" agent="Mozilla/5.0 (Windows NT 10.0; Win64; x64) AppleWebKit/537.36 (KHTML, like Gecko) Chrome/128.0.0.0 Safari/537.36 Edg/128.0.0.0" version="24.7.6">
  <diagram id="Ht1M8jgEwFfnCIfOTk4-" name="Page-1">
    <mxGraphModel dx="3352" dy="3654" grid="1" gridSize="10" guides="1" tooltips="1" connect="1" arrows="1" fold="1" page="1" pageScale="1" pageWidth="1169" pageHeight="827" math="0" shadow="0">
      <root>
        <mxCell id="0" />
        <mxCell id="1" parent="0" />
        <mxCell id="SsFV9lfEsT5ky-LdXTRo-32" style="edgeStyle=orthogonalEdgeStyle;rounded=0;orthogonalLoop=1;jettySize=auto;html=1;exitX=1;exitY=0.5;exitDx=0;exitDy=0;entryX=0;entryY=0.5;entryDx=0;entryDy=0;strokeWidth=4;fillColor=#d5e8d4;strokeColor=#009900;dashed=1;shape=link;dashPattern=1 1;" edge="1" parent="1" source="SsFV9lfEsT5ky-LdXTRo-29" target="SsFV9lfEsT5ky-LdXTRo-28">
          <mxGeometry relative="1" as="geometry" />
        </mxCell>
        <mxCell id="SsFV9lfEsT5ky-LdXTRo-29" value="" style="shape=datastore;whiteSpace=wrap;html=1;strokeColor=#009900;" vertex="1" parent="1">
          <mxGeometry x="2740" y="-1735" width="335" height="300" as="geometry" />
        </mxCell>
        <mxCell id="-QjtrjUzRDEMRZ5MF8oH-14" value="Amazon SageMaker" style="whiteSpace=wrap;html=1;fillColor=none;fontSize=14;fontColor=#000000;dashed=0;fontStyle=0;align=center;verticalAlign=top;strokeColor=#D86613;gradientColor=none;spacingLeft=0;labelPosition=center;verticalLabelPosition=bottom;container=1;pointerEvents=0;collapsible=0;recursiveResize=0;" parent="1" vertex="1">
          <mxGeometry x="872.5" y="174.5" width="232" height="160" as="geometry" />
        </mxCell>
        <mxCell id="SCVMTBWpLvtzJIhz15lM-34" value="" style="whiteSpace=wrap;html=1;fillColor=none;fontSize=14;fontColor=#000000;dashed=0;fontStyle=0;align=center;verticalAlign=top;strokeColor=#CCCCCC;gradientColor=none;spacingLeft=0;labelPosition=center;verticalLabelPosition=bottom;" parent="1" vertex="1">
          <mxGeometry x="882.5" y="257.5" width="210" height="70" as="geometry" />
        </mxCell>
        <mxCell id="-QjtrjUzRDEMRZ5MF8oH-1" value="" style="outlineConnect=0;fontColor=#232F3E;gradientColor=none;fillColor=#277116;strokeColor=none;dashed=0;verticalLabelPosition=bottom;verticalAlign=top;align=center;html=1;fontSize=12;fontStyle=0;aspect=fixed;pointerEvents=1;shape=mxgraph.aws4.door_lock;" parent="1" vertex="1">
          <mxGeometry x="64.5" y="260.5" width="78" height="78" as="geometry" />
        </mxCell>
        <mxCell id="-QjtrjUzRDEMRZ5MF8oH-2" value="" style="outlineConnect=0;fontColor=#232F3E;gradientColor=none;fillColor=#277116;strokeColor=none;dashed=0;verticalLabelPosition=bottom;verticalAlign=top;align=center;html=1;fontSize=12;fontStyle=0;aspect=fixed;pointerEvents=1;shape=mxgraph.aws4.car;" parent="1" vertex="1">
          <mxGeometry x="64.5" y="356" width="78" height="78" as="geometry" />
        </mxCell>
        <mxCell id="-QjtrjUzRDEMRZ5MF8oH-3" value="" style="outlineConnect=0;fontColor=#232F3E;gradientColor=none;fillColor=#277116;strokeColor=none;dashed=0;verticalLabelPosition=bottom;verticalAlign=top;align=center;html=1;fontSize=12;fontStyle=0;aspect=fixed;pointerEvents=1;shape=mxgraph.aws4.camera;" parent="1" vertex="1">
          <mxGeometry x="64.5" y="451.5" width="78" height="78" as="geometry" />
        </mxCell>
        <mxCell id="-QjtrjUzRDEMRZ5MF8oH-4" value="" style="outlineConnect=0;fontColor=#232F3E;gradientColor=none;fillColor=#277116;strokeColor=none;dashed=0;verticalLabelPosition=bottom;verticalAlign=top;align=center;html=1;fontSize=12;fontStyle=0;aspect=fixed;pointerEvents=1;shape=mxgraph.aws4.utility;" parent="1" vertex="1">
          <mxGeometry x="165.5" y="306.5" width="78" height="78" as="geometry" />
        </mxCell>
        <mxCell id="-QjtrjUzRDEMRZ5MF8oH-5" value="" style="outlineConnect=0;fontColor=#232F3E;gradientColor=none;fillColor=#277116;strokeColor=none;dashed=0;verticalLabelPosition=bottom;verticalAlign=top;align=center;html=1;fontSize=12;fontStyle=0;aspect=fixed;pointerEvents=1;shape=mxgraph.aws4.coffee_pot;" parent="1" vertex="1">
          <mxGeometry x="166.5" y="410.5" width="78" height="78" as="geometry" />
        </mxCell>
        <mxCell id="-QjtrjUzRDEMRZ5MF8oH-6" value="" style="outlineConnect=0;fontColor=#232F3E;gradientColor=none;fillColor=#277116;strokeColor=none;dashed=0;verticalLabelPosition=bottom;verticalAlign=top;align=center;html=1;fontSize=12;fontStyle=0;aspect=fixed;pointerEvents=1;shape=mxgraph.aws4.lightbulb;" parent="1" vertex="1">
          <mxGeometry x="263.5" y="260.5" width="78" height="78" as="geometry" />
        </mxCell>
        <mxCell id="-QjtrjUzRDEMRZ5MF8oH-7" value="" style="outlineConnect=0;fontColor=#232F3E;gradientColor=none;fillColor=#277116;strokeColor=none;dashed=0;verticalLabelPosition=bottom;verticalAlign=top;align=center;html=1;fontSize=12;fontStyle=0;aspect=fixed;pointerEvents=1;shape=mxgraph.aws4.house;" parent="1" vertex="1">
          <mxGeometry x="261.5" y="356" width="78" height="78" as="geometry" />
        </mxCell>
        <mxCell id="-QjtrjUzRDEMRZ5MF8oH-8" value="" style="outlineConnect=0;fontColor=#232F3E;gradientColor=none;fillColor=#277116;strokeColor=none;dashed=0;verticalLabelPosition=bottom;verticalAlign=top;align=center;html=1;fontSize=12;fontStyle=0;aspect=fixed;pointerEvents=1;shape=mxgraph.aws4.thermostat;" parent="1" vertex="1">
          <mxGeometry x="261.5" y="451.5" width="78" height="78" as="geometry" />
        </mxCell>
        <mxCell id="-QjtrjUzRDEMRZ5MF8oH-9" value="1" style="rounded=1;whiteSpace=wrap;html=1;fillColor=#007CBD;strokeColor=none;fontColor=#FFFFFF;fontStyle=1;fontSize=22;" parent="1" vertex="1">
          <mxGeometry x="223.5" y="211.5" width="40" height="38" as="geometry" />
        </mxCell>
        <mxCell id="-QjtrjUzRDEMRZ5MF8oH-10" value="ML Model Executable" style="outlineConnect=0;fontColor=#232F3E;gradientColor=none;fillColor=#116D5B;strokeColor=none;dashed=0;verticalLabelPosition=bottom;verticalAlign=top;align=center;html=1;fontSize=12;fontStyle=0;aspect=fixed;pointerEvents=1;shape=mxgraph.aws4.sagemaker_model;" parent="1" vertex="1">
          <mxGeometry x="473.5" y="244.5" width="78" height="78" as="geometry" />
        </mxCell>
        <mxCell id="-QjtrjUzRDEMRZ5MF8oH-11" value="AWS Lambda Function" style="outlineConnect=0;fontColor=#232F3E;gradientColor=none;fillColor=#277116;strokeColor=none;dashed=0;verticalLabelPosition=bottom;verticalAlign=top;align=center;html=1;fontSize=12;fontStyle=0;aspect=fixed;pointerEvents=1;shape=mxgraph.aws4.lambda_function;" parent="1" vertex="1">
          <mxGeometry x="473.5" y="349.5" width="78" height="78" as="geometry" />
        </mxCell>
        <mxCell id="-QjtrjUzRDEMRZ5MF8oH-12" value="AWS IoT Greengrass Core" style="outlineConnect=0;fontColor=#232F3E;gradientColor=#60A337;gradientDirection=north;fillColor=#277116;strokeColor=#ffffff;dashed=0;verticalLabelPosition=bottom;verticalAlign=top;align=center;html=1;fontSize=12;fontStyle=0;aspect=fixed;shape=mxgraph.aws4.resourceIcon;resIcon=mxgraph.aws4.greengrass;" parent="1" vertex="1">
          <mxGeometry x="473.5" y="457.5" width="78" height="78" as="geometry" />
        </mxCell>
        <mxCell id="-QjtrjUzRDEMRZ5MF8oH-16" value="AWS IoT Core" style="outlineConnect=0;fontColor=#232F3E;gradientColor=#60A337;gradientDirection=north;fillColor=#277116;strokeColor=#ffffff;dashed=0;verticalLabelPosition=bottom;verticalAlign=top;align=center;html=1;fontSize=12;fontStyle=0;aspect=fixed;shape=mxgraph.aws4.resourceIcon;resIcon=mxgraph.aws4.internet_of_things;" parent="1" vertex="1">
          <mxGeometry x="745.5" y="451.5" width="78" height="78" as="geometry" />
        </mxCell>
        <mxCell id="-QjtrjUzRDEMRZ5MF8oH-17" value="AWS IoT Analytics" style="outlineConnect=0;fontColor=#232F3E;gradientColor=#60A337;gradientDirection=north;fillColor=#277116;strokeColor=#ffffff;dashed=0;verticalLabelPosition=bottom;verticalAlign=top;align=center;html=1;fontSize=12;fontStyle=0;aspect=fixed;shape=mxgraph.aws4.resourceIcon;resIcon=mxgraph.aws4.iot_analytics;" parent="1" vertex="1">
          <mxGeometry x="949.5" y="451.5" width="78" height="78" as="geometry" />
        </mxCell>
        <mxCell id="-QjtrjUzRDEMRZ5MF8oH-18" value="ML Model Executable" style="outlineConnect=0;fontColor=#232F3E;gradientColor=none;fillColor=#116D5B;strokeColor=none;dashed=0;verticalLabelPosition=bottom;verticalAlign=top;align=center;html=1;fontSize=12;fontStyle=0;aspect=fixed;pointerEvents=1;shape=mxgraph.aws4.sagemaker_model;" parent="1" vertex="1">
          <mxGeometry x="136.5" y="691.5" width="78" height="78" as="geometry" />
        </mxCell>
        <mxCell id="-QjtrjUzRDEMRZ5MF8oH-19" value="AWS IoT Greengrass Core" style="outlineConnect=0;fontColor=#232F3E;gradientColor=#60A337;gradientDirection=north;fillColor=#277116;strokeColor=#ffffff;dashed=0;verticalLabelPosition=bottom;verticalAlign=top;align=center;html=1;fontSize=12;fontStyle=0;aspect=fixed;shape=mxgraph.aws4.resourceIcon;resIcon=mxgraph.aws4.iot_core;" parent="1" vertex="1">
          <mxGeometry x="137.5" y="796" width="78" height="78" as="geometry" />
        </mxCell>
        <mxCell id="-QjtrjUzRDEMRZ5MF8oH-20" value="Video Camera" style="outlineConnect=0;fontColor=#232F3E;gradientColor=none;fillColor=#277116;strokeColor=none;dashed=0;verticalLabelPosition=bottom;verticalAlign=top;align=center;html=1;fontSize=12;fontStyle=0;aspect=fixed;pointerEvents=1;shape=mxgraph.aws4.camera;" parent="1" vertex="1">
          <mxGeometry x="168" y="952.5" width="8.5" height="8.5" as="geometry" />
        </mxCell>
        <mxCell id="-QjtrjUzRDEMRZ5MF8oH-21" value="AWS IoT Core" style="outlineConnect=0;fontColor=#232F3E;gradientColor=#60A337;gradientDirection=north;fillColor=#277116;strokeColor=#ffffff;dashed=0;verticalLabelPosition=bottom;verticalAlign=top;align=center;html=1;fontSize=12;fontStyle=0;aspect=fixed;shape=mxgraph.aws4.resourceIcon;resIcon=mxgraph.aws4.internet_of_things;" parent="1" vertex="1">
          <mxGeometry x="352.5" y="711.5" width="78" height="78" as="geometry" />
        </mxCell>
        <mxCell id="-QjtrjUzRDEMRZ5MF8oH-22" value="AWS IoT Analytics" style="outlineConnect=0;fontColor=#232F3E;gradientColor=#60A337;gradientDirection=north;fillColor=#277116;strokeColor=#ffffff;dashed=0;verticalLabelPosition=bottom;verticalAlign=top;align=center;html=1;fontSize=12;fontStyle=0;aspect=fixed;shape=mxgraph.aws4.resourceIcon;resIcon=mxgraph.aws4.iot_analytics;" parent="1" vertex="1">
          <mxGeometry x="532.5" y="708.5" width="78" height="78" as="geometry" />
        </mxCell>
        <mxCell id="-QjtrjUzRDEMRZ5MF8oH-23" value="AWS IoT Events" style="outlineConnect=0;fontColor=#232F3E;gradientColor=#60A337;gradientDirection=north;fillColor=#277116;strokeColor=#ffffff;dashed=0;verticalLabelPosition=bottom;verticalAlign=top;align=center;html=1;fontSize=12;fontStyle=0;aspect=fixed;shape=mxgraph.aws4.resourceIcon;resIcon=mxgraph.aws4.iot_events;" parent="1" vertex="1">
          <mxGeometry x="721.5" y="708.5" width="78" height="78" as="geometry" />
        </mxCell>
        <mxCell id="-QjtrjUzRDEMRZ5MF8oH-24" value="Amazon SNS" style="outlineConnect=0;fontColor=#232F3E;gradientColor=#F34482;gradientDirection=north;fillColor=#BC1356;strokeColor=#ffffff;dashed=0;verticalLabelPosition=bottom;verticalAlign=top;align=center;html=1;fontSize=12;fontStyle=0;aspect=fixed;shape=mxgraph.aws4.resourceIcon;resIcon=mxgraph.aws4.sns;" parent="1" vertex="1">
          <mxGeometry x="902.5" y="708.5" width="78" height="78" as="geometry" />
        </mxCell>
        <mxCell id="-QjtrjUzRDEMRZ5MF8oH-25" value="Amazon Kinesis&lt;br&gt;Video Streams&lt;br&gt;" style="outlineConnect=0;fontColor=#232F3E;gradientColor=#945DF2;gradientDirection=north;fillColor=#5A30B5;strokeColor=#ffffff;dashed=0;verticalLabelPosition=bottom;verticalAlign=top;align=center;html=1;fontSize=12;fontStyle=0;aspect=fixed;shape=mxgraph.aws4.resourceIcon;resIcon=mxgraph.aws4.kinesis_video_streams;" parent="1" vertex="1">
          <mxGeometry x="484.5" y="874.5" width="78" height="78" as="geometry" />
        </mxCell>
        <mxCell id="-QjtrjUzRDEMRZ5MF8oH-26" value="Mobile Application" style="outlineConnect=0;fontColor=#232F3E;gradientColor=#F54749;gradientDirection=north;fillColor=#C7131F;strokeColor=#ffffff;dashed=0;verticalLabelPosition=bottom;verticalAlign=top;align=center;html=1;fontSize=12;fontStyle=0;aspect=fixed;shape=mxgraph.aws4.resourceIcon;resIcon=mxgraph.aws4.mobile;" parent="1" vertex="1">
          <mxGeometry x="785.5" y="873.5" width="78" height="78" as="geometry" />
        </mxCell>
        <mxCell id="-QjtrjUzRDEMRZ5MF8oH-27" value="2" style="rounded=1;whiteSpace=wrap;html=1;fillColor=#007CBD;strokeColor=none;fontColor=#FFFFFF;fontStyle=1;fontSize=22;" parent="1" vertex="1">
          <mxGeometry x="483.5" y="164.5" width="40" height="38" as="geometry" />
        </mxCell>
        <mxCell id="-QjtrjUzRDEMRZ5MF8oH-28" value="3" style="rounded=1;whiteSpace=wrap;html=1;fillColor=#007CBD;strokeColor=none;fontColor=#FFFFFF;fontStyle=1;fontSize=22;" parent="1" vertex="1">
          <mxGeometry x="823.5" y="175.5" width="40" height="38" as="geometry" />
        </mxCell>
        <mxCell id="-QjtrjUzRDEMRZ5MF8oH-29" value="4" style="rounded=1;whiteSpace=wrap;html=1;fillColor=#007CBD;strokeColor=none;fontColor=#FFFFFF;fontStyle=1;fontSize=22;" parent="1" vertex="1">
          <mxGeometry x="633.5" y="399.5" width="40" height="38" as="geometry" />
        </mxCell>
        <mxCell id="-QjtrjUzRDEMRZ5MF8oH-30" value="5" style="rounded=1;whiteSpace=wrap;html=1;fillColor=#007CBD;strokeColor=none;fontColor=#FFFFFF;fontStyle=1;fontSize=22;" parent="1" vertex="1">
          <mxGeometry x="878.5" y="399.5" width="40" height="38" as="geometry" />
        </mxCell>
        <mxCell id="-QjtrjUzRDEMRZ5MF8oH-31" value="6" style="rounded=1;whiteSpace=wrap;html=1;fillColor=#007CBD;strokeColor=none;fontColor=#FFFFFF;fontStyle=1;fontSize=22;" parent="1" vertex="1">
          <mxGeometry x="136.5" y="608.5" width="40" height="38" as="geometry" />
        </mxCell>
        <mxCell id="-QjtrjUzRDEMRZ5MF8oH-32" value="7" style="rounded=1;whiteSpace=wrap;html=1;fillColor=#007CBD;strokeColor=none;fontColor=#FFFFFF;fontStyle=1;fontSize=22;" parent="1" vertex="1">
          <mxGeometry x="462.5" y="666.5" width="40" height="38" as="geometry" />
        </mxCell>
        <mxCell id="-QjtrjUzRDEMRZ5MF8oH-33" value="8" style="rounded=1;whiteSpace=wrap;html=1;fillColor=#007CBD;strokeColor=none;fontColor=#FFFFFF;fontStyle=1;fontSize=22;" parent="1" vertex="1">
          <mxGeometry x="832.5" y="666.5" width="40" height="38" as="geometry" />
        </mxCell>
        <mxCell id="-QjtrjUzRDEMRZ5MF8oH-34" value="9" style="rounded=1;whiteSpace=wrap;html=1;fillColor=#007CBD;strokeColor=none;fontColor=#FFFFFF;fontStyle=1;fontSize=22;" parent="1" vertex="1">
          <mxGeometry x="352.5" y="854.5" width="40" height="38" as="geometry" />
        </mxCell>
        <mxCell id="-QjtrjUzRDEMRZ5MF8oH-35" value="10" style="rounded=1;whiteSpace=wrap;html=1;fillColor=#007CBD;strokeColor=none;fontColor=#FFFFFF;fontStyle=1;fontSize=22;" parent="1" vertex="1">
          <mxGeometry x="652.5" y="854.5" width="40" height="38" as="geometry" />
        </mxCell>
        <mxCell id="-QjtrjUzRDEMRZ5MF8oH-47" value="Title text" style="text;html=1;resizable=0;points=[];autosize=1;align=left;verticalAlign=top;spacingTop=-4;fontSize=30;fontStyle=1" parent="1" vertex="1">
          <mxGeometry x="56.5" y="64.5" width="130" height="40" as="geometry" />
        </mxCell>
        <mxCell id="-QjtrjUzRDEMRZ5MF8oH-48" value="Subtitle text&lt;br style=&quot;font-size: 16px&quot;&gt;" style="text;html=1;resizable=0;points=[];autosize=1;align=left;verticalAlign=top;spacingTop=-4;fontSize=16;" parent="1" vertex="1">
          <mxGeometry x="56.5" y="114.5" width="100" height="20" as="geometry" />
        </mxCell>
        <mxCell id="-QjtrjUzRDEMRZ5MF8oH-49" value="Label" style="text;html=1;resizable=0;points=[];autosize=1;align=left;verticalAlign=top;spacingTop=-4;fontSize=16;fontStyle=1" parent="1" vertex="1">
          <mxGeometry x="84.5" y="164.5" width="50" height="20" as="geometry" />
        </mxCell>
        <mxCell id="SCVMTBWpLvtzJIhz15lM-1" value="" style="line;strokeWidth=2;html=1;fontSize=14;" parent="1" vertex="1">
          <mxGeometry x="52.5" y="139.5" width="1060" height="10" as="geometry" />
        </mxCell>
        <mxCell id="SCVMTBWpLvtzJIhz15lM-2" value="&lt;span&gt;Label&lt;/span&gt;" style="text;html=1;resizable=0;points=[];autosize=1;align=left;verticalAlign=top;spacingTop=-4;fontSize=14;fontStyle=1" parent="1" vertex="1">
          <mxGeometry x="442.5" y="216.5" width="50" height="20" as="geometry" />
        </mxCell>
        <mxCell id="SCVMTBWpLvtzJIhz15lM-3" value="" style="edgeStyle=orthogonalEdgeStyle;html=1;endArrow=open;elbow=vertical;startArrow=none;endFill=0;strokeColor=#545B64;rounded=0;fontSize=14;" parent="1" edge="1">
          <mxGeometry width="100" relative="1" as="geometry">
            <mxPoint x="354.5" y="394.5" as="sourcePoint" />
            <mxPoint x="404.5" y="394.5" as="targetPoint" />
          </mxGeometry>
        </mxCell>
        <mxCell id="SCVMTBWpLvtzJIhz15lM-5" value="" style="shape=curlyBracket;whiteSpace=wrap;html=1;rounded=1;fontSize=14;" parent="1" vertex="1">
          <mxGeometry x="415.5" y="248.5" width="20" height="290" as="geometry" />
        </mxCell>
        <mxCell id="SCVMTBWpLvtzJIhz15lM-17" value="&lt;span&gt;Label&lt;/span&gt;" style="edgeStyle=orthogonalEdgeStyle;html=1;endArrow=open;elbow=vertical;startArrow=none;endFill=0;strokeColor=#545B64;rounded=0;fontSize=14;strokeWidth=2;" parent="1" edge="1">
          <mxGeometry x="-0.037" y="20" width="100" relative="1" as="geometry">
            <mxPoint x="584.5" y="254.5" as="sourcePoint" />
            <mxPoint x="854.5" y="254.5" as="targetPoint" />
            <mxPoint as="offset" />
          </mxGeometry>
        </mxCell>
        <mxCell id="SCVMTBWpLvtzJIhz15lM-18" value="&lt;span&gt;Label&lt;/span&gt;" style="edgeStyle=orthogonalEdgeStyle;html=1;endArrow=none;elbow=vertical;startArrow=open;endFill=0;strokeColor=#545B64;rounded=0;fontSize=14;strokeWidth=2;startFill=0;" parent="1" edge="1">
          <mxGeometry x="-0.037" y="20" width="100" relative="1" as="geometry">
            <mxPoint x="582.5" y="318" as="sourcePoint" />
            <mxPoint x="852.5" y="318" as="targetPoint" />
            <mxPoint as="offset" />
          </mxGeometry>
        </mxCell>
        <mxCell id="SCVMTBWpLvtzJIhz15lM-19" value="&lt;span&gt;Label&lt;/span&gt;" style="edgeStyle=orthogonalEdgeStyle;html=1;endArrow=open;elbow=vertical;startArrow=none;endFill=0;strokeColor=#545B64;rounded=0;fontSize=14;strokeWidth=2;" parent="1" edge="1">
          <mxGeometry x="-0.037" y="20" width="100" relative="1" as="geometry">
            <mxPoint x="594.5000000000002" y="484.5" as="sourcePoint" />
            <mxPoint x="714.5" y="484.5" as="targetPoint" />
            <mxPoint as="offset" />
          </mxGeometry>
        </mxCell>
        <mxCell id="SCVMTBWpLvtzJIhz15lM-20" value="&lt;span&gt;Label&lt;/span&gt;" style="edgeStyle=orthogonalEdgeStyle;html=1;endArrow=open;elbow=vertical;startArrow=none;endFill=0;strokeColor=#545B64;rounded=0;fontSize=14;strokeWidth=2;" parent="1" edge="1">
          <mxGeometry x="-0.037" y="20" width="100" relative="1" as="geometry">
            <mxPoint x="838.5000000000002" y="487.5" as="sourcePoint" />
            <mxPoint x="924.5" y="487.5" as="targetPoint" />
            <mxPoint as="offset" />
          </mxGeometry>
        </mxCell>
        <mxCell id="SCVMTBWpLvtzJIhz15lM-21" value="Label" style="text;html=1;resizable=0;points=[];autosize=1;align=left;verticalAlign=top;spacingTop=-4;fontSize=16;fontStyle=1" parent="1" vertex="1">
          <mxGeometry x="66.5" y="576.5" width="50" height="20" as="geometry" />
        </mxCell>
        <mxCell id="SCVMTBWpLvtzJIhz15lM-22" value="&lt;span&gt;Label&lt;/span&gt;" style="text;html=1;resizable=0;points=[];autosize=1;align=left;verticalAlign=top;spacingTop=-4;fontSize=14;fontStyle=1" parent="1" vertex="1">
          <mxGeometry x="136.5" y="656.5" width="50" height="20" as="geometry" />
        </mxCell>
        <mxCell id="SCVMTBWpLvtzJIhz15lM-23" value="" style="shape=curlyBracket;whiteSpace=wrap;html=1;rounded=1;fontSize=14;" parent="1" vertex="1">
          <mxGeometry x="76.5" y="691.5" width="20" height="290" as="geometry" />
        </mxCell>
        <mxCell id="SCVMTBWpLvtzJIhz15lM-24" value="Video Events" style="edgeStyle=orthogonalEdgeStyle;html=1;endArrow=open;elbow=vertical;startArrow=none;endFill=0;strokeColor=#545B64;rounded=0;fontSize=14;strokeWidth=2;" parent="1" edge="1">
          <mxGeometry x="-0.037" y="20" width="100" relative="1" as="geometry">
            <mxPoint x="261.5" y="753.5" as="sourcePoint" />
            <mxPoint x="342.5" y="753.5" as="targetPoint" />
            <mxPoint as="offset" />
          </mxGeometry>
        </mxCell>
        <mxCell id="SCVMTBWpLvtzJIhz15lM-25" value="" style="edgeStyle=orthogonalEdgeStyle;html=1;endArrow=open;elbow=vertical;startArrow=none;endFill=0;strokeColor=#545B64;rounded=0;fontSize=14;strokeWidth=2;" parent="1" edge="1">
          <mxGeometry x="-0.037" y="20" width="100" relative="1" as="geometry">
            <mxPoint x="443" y="750" as="sourcePoint" />
            <mxPoint x="524" y="750" as="targetPoint" />
            <mxPoint as="offset" />
          </mxGeometry>
        </mxCell>
        <mxCell id="SCVMTBWpLvtzJIhz15lM-26" value="" style="edgeStyle=orthogonalEdgeStyle;html=1;endArrow=open;elbow=vertical;startArrow=none;endFill=0;strokeColor=#545B64;rounded=0;fontSize=14;strokeWidth=2;" parent="1" edge="1">
          <mxGeometry x="-0.037" y="20" width="100" relative="1" as="geometry">
            <mxPoint x="622.5" y="750" as="sourcePoint" />
            <mxPoint x="703.5" y="750" as="targetPoint" />
            <mxPoint as="offset" />
          </mxGeometry>
        </mxCell>
        <mxCell id="SCVMTBWpLvtzJIhz15lM-27" value="" style="edgeStyle=orthogonalEdgeStyle;html=1;endArrow=open;elbow=vertical;startArrow=none;endFill=0;strokeColor=#545B64;rounded=0;fontSize=14;strokeWidth=2;" parent="1" edge="1">
          <mxGeometry x="-0.037" y="20" width="100" relative="1" as="geometry">
            <mxPoint x="811.5" y="747.5" as="sourcePoint" />
            <mxPoint x="892.5" y="747.5" as="targetPoint" />
            <mxPoint as="offset" />
          </mxGeometry>
        </mxCell>
        <mxCell id="SCVMTBWpLvtzJIhz15lM-28" value="Video Stream" style="edgeStyle=orthogonalEdgeStyle;html=1;endArrow=open;elbow=vertical;startArrow=none;endFill=0;strokeColor=#545B64;rounded=0;fontSize=14;strokeWidth=2;" parent="1" edge="1">
          <mxGeometry x="0.0038" y="-11" width="100" relative="1" as="geometry">
            <mxPoint x="262" y="913" as="sourcePoint" />
            <mxPoint x="472.5" y="913.5" as="targetPoint" />
            <mxPoint as="offset" />
            <Array as="points">
              <mxPoint x="367.5" y="913.5" />
            </Array>
          </mxGeometry>
        </mxCell>
        <mxCell id="SCVMTBWpLvtzJIhz15lM-29" value="" style="edgeStyle=orthogonalEdgeStyle;html=1;endArrow=open;elbow=vertical;startArrow=none;endFill=0;strokeColor=#545B64;rounded=0;fontSize=14;strokeWidth=2;" parent="1" edge="1">
          <mxGeometry x="0.0038" y="-11" width="100" relative="1" as="geometry">
            <mxPoint x="575.0714285714287" y="913.2142857142858" as="sourcePoint" />
            <mxPoint x="762.5" y="913.5" as="targetPoint" />
            <mxPoint as="offset" />
            <Array as="points">
              <mxPoint x="680.5" y="913.5" />
            </Array>
          </mxGeometry>
        </mxCell>
        <mxCell id="SCVMTBWpLvtzJIhz15lM-30" value="Build" style="outlineConnect=0;gradientColor=none;fontColor=#545B64;strokeColor=none;fillColor=#879196;dashed=0;verticalLabelPosition=bottom;verticalAlign=top;align=center;html=1;fontSize=12;fontStyle=0;aspect=fixed;shape=mxgraph.aws4.illustration_devices;pointerEvents=1" parent="1" vertex="1">
          <mxGeometry x="962.5" y="179.5" width="52" height="38" as="geometry" />
        </mxCell>
        <mxCell id="SCVMTBWpLvtzJIhz15lM-31" value="Train" style="outlineConnect=0;gradientColor=none;fontColor=#545B64;strokeColor=none;fillColor=#879196;dashed=0;verticalLabelPosition=bottom;verticalAlign=top;align=center;html=1;fontSize=12;fontStyle=0;aspect=fixed;shape=mxgraph.aws4.illustration_devices;pointerEvents=1" parent="1" vertex="1">
          <mxGeometry x="892.5" y="267.5" width="52" height="38" as="geometry" />
        </mxCell>
        <mxCell id="SCVMTBWpLvtzJIhz15lM-32" value="Optimize" style="outlineConnect=0;gradientColor=none;fontColor=#545B64;strokeColor=none;fillColor=#879196;dashed=0;verticalLabelPosition=bottom;verticalAlign=top;align=center;html=1;fontSize=12;fontStyle=0;aspect=fixed;shape=mxgraph.aws4.illustration_devices;pointerEvents=1" parent="1" vertex="1">
          <mxGeometry x="1032.5" y="267.5" width="52" height="38" as="geometry" />
        </mxCell>
        <mxCell id="SCVMTBWpLvtzJIhz15lM-33" value="" style="edgeStyle=orthogonalEdgeStyle;html=1;endArrow=open;elbow=vertical;startArrow=none;endFill=0;strokeColor=#545B64;rounded=0;fontSize=14;" parent="1" edge="1">
          <mxGeometry width="100" relative="1" as="geometry">
            <mxPoint x="958.5" y="293.5" as="sourcePoint" />
            <mxPoint x="1018.5" y="293.5" as="targetPoint" />
          </mxGeometry>
        </mxCell>
        <mxCell id="SCVMTBWpLvtzJIhz15lM-35" value="" style="edgeStyle=orthogonalEdgeStyle;html=1;endArrow=open;elbow=vertical;startArrow=none;endFill=0;strokeColor=#545B64;rounded=0;fontSize=14;" parent="1" edge="1">
          <mxGeometry width="100" relative="1" as="geometry">
            <mxPoint x="992.5" y="236.46774193548387" as="sourcePoint" />
            <mxPoint x="992.5" y="256.4677419354839" as="targetPoint" />
          </mxGeometry>
        </mxCell>
        <mxCell id="7OVz4w7n9kzEPWy-4BBC-3" value="" style="rounded=0;whiteSpace=wrap;html=1;fillColor=#EAEDED;fontSize=22;fontColor=#FFFFFF;strokeColor=none;labelBackgroundColor=none;" parent="1" vertex="1">
          <mxGeometry x="1151" y="51" width="539" height="1220" as="geometry" />
        </mxCell>
        <mxCell id="7OVz4w7n9kzEPWy-4BBC-4" value="1" style="rounded=1;whiteSpace=wrap;html=1;fillColor=#007CBD;strokeColor=none;fontColor=#FFFFFF;fontStyle=1;fontSize=22;labelBackgroundColor=none;" parent="1" vertex="1">
          <mxGeometry x="1169" y="63" width="40" height="38" as="geometry" />
        </mxCell>
        <mxCell id="7OVz4w7n9kzEPWy-4BBC-5" value="2" style="rounded=1;whiteSpace=wrap;html=1;fillColor=#007CBD;strokeColor=none;fontColor=#FFFFFF;fontStyle=1;fontSize=22;labelBackgroundColor=none;" parent="1" vertex="1">
          <mxGeometry x="1167.5" y="185" width="40" height="38" as="geometry" />
        </mxCell>
        <mxCell id="7OVz4w7n9kzEPWy-4BBC-6" value="3" style="rounded=1;whiteSpace=wrap;html=1;fillColor=#007CBD;strokeColor=none;fontColor=#FFFFFF;fontStyle=1;fontSize=22;labelBackgroundColor=none;" parent="1" vertex="1">
          <mxGeometry x="1167.5" y="305" width="40" height="38" as="geometry" />
        </mxCell>
        <mxCell id="7OVz4w7n9kzEPWy-4BBC-7" value="4" style="rounded=1;whiteSpace=wrap;html=1;fillColor=#007CBD;strokeColor=none;fontColor=#FFFFFF;fontStyle=1;fontSize=22;labelBackgroundColor=none;" parent="1" vertex="1">
          <mxGeometry x="1167.5" y="419" width="40" height="38" as="geometry" />
        </mxCell>
        <mxCell id="7OVz4w7n9kzEPWy-4BBC-8" value="5" style="rounded=1;whiteSpace=wrap;html=1;fillColor=#007CBD;strokeColor=none;fontColor=#FFFFFF;fontStyle=1;fontSize=22;labelBackgroundColor=none;" parent="1" vertex="1">
          <mxGeometry x="1169" y="536" width="40" height="38" as="geometry" />
        </mxCell>
        <mxCell id="7OVz4w7n9kzEPWy-4BBC-9" value="6" style="rounded=1;whiteSpace=wrap;html=1;fillColor=#007CBD;strokeColor=none;fontColor=#FFFFFF;fontStyle=1;fontSize=22;labelBackgroundColor=none;" parent="1" vertex="1">
          <mxGeometry x="1170" y="651" width="40" height="38" as="geometry" />
        </mxCell>
        <mxCell id="7OVz4w7n9kzEPWy-4BBC-10" value="7" style="rounded=1;whiteSpace=wrap;html=1;fillColor=#007CBD;strokeColor=none;fontColor=#FFFFFF;fontStyle=1;fontSize=22;labelBackgroundColor=none;" parent="1" vertex="1">
          <mxGeometry x="1169.5" y="767" width="40" height="38" as="geometry" />
        </mxCell>
        <mxCell id="7OVz4w7n9kzEPWy-4BBC-11" value="8" style="rounded=1;whiteSpace=wrap;html=1;fillColor=#007CBD;strokeColor=none;fontColor=#FFFFFF;fontStyle=1;fontSize=22;labelBackgroundColor=none;" parent="1" vertex="1">
          <mxGeometry x="1170" y="885" width="40" height="38" as="geometry" />
        </mxCell>
        <mxCell id="7OVz4w7n9kzEPWy-4BBC-12" value="9" style="rounded=1;whiteSpace=wrap;html=1;fillColor=#007CBD;strokeColor=none;fontColor=#FFFFFF;fontStyle=1;fontSize=22;labelBackgroundColor=none;" parent="1" vertex="1">
          <mxGeometry x="1168" y="1005" width="40" height="38" as="geometry" />
        </mxCell>
        <mxCell id="7OVz4w7n9kzEPWy-4BBC-13" value="&lt;span&gt;Lorem ipsum dolor sit amet, consectetur adipiscing elit, sed do eiusmod tempor incididunt ut labore et dolore magna aliqua. Ut enim ad minim veniam, quis nostrud exercitation ullamco laboris nisi ut aliquip ex ea commodo consequat. Duis aute irure dolor in reprehenderit in voluptate velit esse cillum dolore eu fugiat nulla pariatur. Excepteur sint occaecat cupidatat non proident, sunt in culpa qui officia deserunt mollit anim id est laborum.&lt;/span&gt;&lt;br&gt;" style="text;html=1;align=left;verticalAlign=top;spacingTop=-4;fontSize=14;labelBackgroundColor=none;whiteSpace=wrap;" parent="1" vertex="1">
          <mxGeometry x="1220.5" y="62.5" width="449" height="118" as="geometry" />
        </mxCell>
        <mxCell id="7OVz4w7n9kzEPWy-4BBC-14" value="&lt;span&gt;Lorem ipsum dolor sit amet, consectetur adipiscing elit, sed do eiusmod tempor incididunt ut labore et dolore magna aliqua. Ut enim ad minim veniam, quis nostrud exercitation ullamco laboris nisi ut aliquip ex ea commodo consequat. Duis aute irure dolor in reprehenderit in voluptate velit esse cillum dolore eu fugiat nulla pariatur. Excepteur sint occaecat cupidatat non proident, sunt in culpa qui officia deserunt mollit anim id est laborum.&lt;/span&gt;&lt;br&gt;" style="text;html=1;align=left;verticalAlign=top;spacingTop=-4;fontSize=14;labelBackgroundColor=none;whiteSpace=wrap;" parent="1" vertex="1">
          <mxGeometry x="1219.5" y="185.5" width="450" height="115" as="geometry" />
        </mxCell>
        <mxCell id="7OVz4w7n9kzEPWy-4BBC-15" value="&lt;span&gt;Lorem ipsum dolor sit amet, consectetur adipiscing elit, sed do eiusmod tempor incididunt ut labore et dolore magna aliqua. Ut enim ad minim veniam, quis nostrud exercitation ullamco laboris nisi ut aliquip ex ea commodo consequat. Duis aute irure dolor in reprehenderit in voluptate velit esse cillum dolore eu fugiat nulla pariatur. Excepteur sint occaecat cupidatat non proident, sunt in culpa qui officia deserunt mollit anim id est laborum.&lt;/span&gt;&lt;br&gt;" style="text;html=1;align=left;verticalAlign=top;spacingTop=-4;fontSize=14;labelBackgroundColor=none;whiteSpace=wrap;" parent="1" vertex="1">
          <mxGeometry x="1219.5" y="303.5" width="450" height="117" as="geometry" />
        </mxCell>
        <mxCell id="7OVz4w7n9kzEPWy-4BBC-16" value="&lt;span&gt;Lorem ipsum dolor sit amet, consectetur adipiscing elit, sed do eiusmod tempor incididunt ut labore et dolore magna aliqua. Ut enim ad minim veniam, quis nostrud exercitation ullamco laboris nisi ut aliquip ex ea commodo consequat. Duis aute irure dolor in reprehenderit in voluptate velit esse cillum dolore eu fugiat nulla pariatur. Excepteur sint occaecat cupidatat non proident, sunt in culpa qui officia deserunt mollit anim id est laborum.&lt;/span&gt;&lt;br&gt;" style="text;html=1;align=left;verticalAlign=top;spacingTop=-4;fontSize=14;labelBackgroundColor=none;whiteSpace=wrap;" parent="1" vertex="1">
          <mxGeometry x="1219.5" y="419.5" width="450" height="121" as="geometry" />
        </mxCell>
        <mxCell id="7OVz4w7n9kzEPWy-4BBC-17" value="&lt;span&gt;Lorem ipsum dolor sit amet, consectetur adipiscing elit, sed do eiusmod tempor incididunt ut labore et dolore magna aliqua. Ut enim ad minim veniam, quis nostrud exercitation ullamco laboris nisi ut aliquip ex ea commodo consequat. Duis aute irure dolor in reprehenderit in voluptate velit esse cillum dolore eu fugiat nulla pariatur. Excepteur sint occaecat cupidatat non proident, sunt in culpa qui officia deserunt mollit anim id est laborum.&lt;/span&gt;&lt;br&gt;" style="text;html=1;align=left;verticalAlign=top;spacingTop=-4;fontSize=14;labelBackgroundColor=none;whiteSpace=wrap;" parent="1" vertex="1">
          <mxGeometry x="1220.5" y="536.5" width="449" height="114" as="geometry" />
        </mxCell>
        <mxCell id="7OVz4w7n9kzEPWy-4BBC-18" value="&lt;span&gt;Lorem ipsum dolor sit amet, consectetur adipiscing elit, sed do eiusmod tempor incididunt ut labore et dolore magna aliqua. Ut enim ad minim veniam, quis nostrud exercitation ullamco laboris nisi ut aliquip ex ea commodo consequat. Duis aute irure dolor in reprehenderit in voluptate velit esse cillum dolore eu fugiat nulla pariatur. Excepteur sint occaecat cupidatat non proident, sunt in culpa qui officia deserunt mollit anim id est laborum.&lt;/span&gt;&lt;br&gt;" style="text;html=1;align=left;verticalAlign=top;spacingTop=-4;fontSize=14;labelBackgroundColor=none;whiteSpace=wrap;" parent="1" vertex="1">
          <mxGeometry x="1220.5" y="652.5" width="450" height="118" as="geometry" />
        </mxCell>
        <mxCell id="7OVz4w7n9kzEPWy-4BBC-19" value="&lt;span&gt;Lorem ipsum dolor sit amet, consectetur adipiscing elit, sed do eiusmod tempor incididunt ut labore et dolore magna aliqua. Ut enim ad minim veniam, quis nostrud exercitation ullamco laboris nisi ut aliquip ex ea commodo consequat. Duis aute irure dolor in reprehenderit in voluptate velit esse cillum dolore eu fugiat nulla pariatur. Excepteur sint occaecat cupidatat non proident, sunt in culpa qui officia deserunt mollit anim id est laborum.&lt;/span&gt;&lt;br&gt;" style="text;html=1;align=left;verticalAlign=top;spacingTop=-4;fontSize=14;labelBackgroundColor=none;whiteSpace=wrap;" parent="1" vertex="1">
          <mxGeometry x="1220.5" y="767.5" width="449" height="113" as="geometry" />
        </mxCell>
        <mxCell id="7OVz4w7n9kzEPWy-4BBC-20" value="&lt;span&gt;Lorem ipsum dolor sit amet, consectetur adipiscing elit, sed do eiusmod tempor incididunt ut labore et dolore magna aliqua. Ut enim ad minim veniam, quis nostrud exercitation ullamco laboris nisi ut aliquip ex ea commodo consequat. Duis aute irure dolor in reprehenderit in voluptate velit esse cillum dolore eu fugiat nulla pariatur. Excepteur sint occaecat cupidatat non proident, sunt in culpa qui officia deserunt mollit anim id est laborum.&lt;/span&gt;&lt;br&gt;" style="text;html=1;align=left;verticalAlign=top;spacingTop=-4;fontSize=14;labelBackgroundColor=none;whiteSpace=wrap;" parent="1" vertex="1">
          <mxGeometry x="1220.5" y="886.5" width="449" height="124" as="geometry" />
        </mxCell>
        <mxCell id="7OVz4w7n9kzEPWy-4BBC-21" value="&lt;span&gt;Lorem ipsum dolor sit amet, consectetur adipiscing elit, sed do eiusmod tempor incididunt ut labore et dolore magna aliqua. Ut enim ad minim veniam, quis nostrud exercitation ullamco laboris nisi ut aliquip ex ea commodo consequat. Duis aute irure dolor in reprehenderit in voluptate velit esse cillum dolore eu fugiat nulla pariatur. Excepteur sint occaecat cupidatat non proident, sunt in culpa qui officia deserunt mollit anim id est laborum.&lt;/span&gt;&lt;br&gt;" style="text;html=1;align=left;verticalAlign=top;spacingTop=-4;fontSize=14;labelBackgroundColor=none;whiteSpace=wrap;" parent="1" vertex="1">
          <mxGeometry x="1220.5" y="1005.5" width="449" height="115" as="geometry" />
        </mxCell>
        <mxCell id="7OVz4w7n9kzEPWy-4BBC-22" value="10" style="rounded=1;whiteSpace=wrap;html=1;fillColor=#007CBD;strokeColor=none;fontColor=#FFFFFF;fontStyle=1;fontSize=22;labelBackgroundColor=none;" parent="1" vertex="1">
          <mxGeometry x="1169" y="1130.5" width="40" height="38" as="geometry" />
        </mxCell>
        <mxCell id="7OVz4w7n9kzEPWy-4BBC-23" value="&lt;span&gt;Lorem ipsum dolor sit amet, consectetur adipiscing elit, sed do eiusmod tempor incididunt ut labore et dolore magna aliqua. Ut enim ad minim veniam, quis nostrud exercitation ullamco laboris nisi ut aliquip ex ea commodo consequat. Duis aute irure dolor in reprehenderit in voluptate velit esse cillum dolore eu fugiat nulla pariatur. Excepteur sint occaecat cupidatat non proident, sunt in culpa qui officia deserunt mollit anim id est laborum.&lt;/span&gt;&lt;br&gt;" style="text;html=1;align=left;verticalAlign=top;spacingTop=-4;fontSize=14;labelBackgroundColor=none;whiteSpace=wrap;" parent="1" vertex="1">
          <mxGeometry x="1221.5" y="1131" width="449" height="115" as="geometry" />
        </mxCell>
        <mxCell id="j5jPh3FzW7VEVjONXw4_-7" value="" style="edgeStyle=orthogonalEdgeStyle;rounded=0;orthogonalLoop=1;jettySize=auto;html=1;" parent="1" source="j5jPh3FzW7VEVjONXw4_-1" target="j5jPh3FzW7VEVjONXw4_-6" edge="1">
          <mxGeometry relative="1" as="geometry">
            <Array as="points">
              <mxPoint x="391" y="-660" />
            </Array>
          </mxGeometry>
        </mxCell>
        <mxCell id="j5jPh3FzW7VEVjONXw4_-10" value="" style="edgeStyle=orthogonalEdgeStyle;rounded=0;orthogonalLoop=1;jettySize=auto;html=1;" parent="1" source="j5jPh3FzW7VEVjONXw4_-1" target="j5jPh3FzW7VEVjONXw4_-9" edge="1">
          <mxGeometry relative="1" as="geometry">
            <Array as="points">
              <mxPoint x="39.5" y="-780" />
            </Array>
          </mxGeometry>
        </mxCell>
        <mxCell id="j5jPh3FzW7VEVjONXw4_-12" style="edgeStyle=orthogonalEdgeStyle;rounded=0;orthogonalLoop=1;jettySize=auto;html=1;exitX=1;exitY=0.5;exitDx=0;exitDy=0;entryX=0;entryY=0.5;entryDx=0;entryDy=0;" parent="1" source="j5jPh3FzW7VEVjONXw4_-1" target="j5jPh3FzW7VEVjONXw4_-8" edge="1">
          <mxGeometry relative="1" as="geometry" />
        </mxCell>
        <mxCell id="j5jPh3FzW7VEVjONXw4_-1" value="Launcher" style="rounded=0;whiteSpace=wrap;html=1;" parent="1" vertex="1">
          <mxGeometry x="-20" y="-880" width="120" height="60" as="geometry" />
        </mxCell>
        <mxCell id="j5jPh3FzW7VEVjONXw4_-8" value="Launcher" style="rounded=0;whiteSpace=wrap;html=1;direction=east;" parent="1" vertex="1">
          <mxGeometry x="160" y="-880" width="120" height="60" as="geometry" />
        </mxCell>
        <mxCell id="j5jPh3FzW7VEVjONXw4_-9" value="Launcher" style="rounded=0;whiteSpace=wrap;html=1;" parent="1" vertex="1">
          <mxGeometry x="160" y="-820" width="120" height="60" as="geometry" />
        </mxCell>
        <mxCell id="j5jPh3FzW7VEVjONXw4_-23" value="Visual Studio 2019:C++" style="swimlane;startSize=50;strokeWidth=2;" parent="1" vertex="1">
          <mxGeometry x="882.5" y="-1960" width="1407.5" height="1080" as="geometry">
            <mxRectangle x="785.5" y="-880" width="170" height="30" as="alternateBounds" />
          </mxGeometry>
        </mxCell>
        <mxCell id="j5jPh3FzW7VEVjONXw4_-26" value="Protobuf" style="whiteSpace=wrap;html=1;" parent="j5jPh3FzW7VEVjONXw4_-23" vertex="1">
          <mxGeometry x="337.5" y="110" width="120" height="60" as="geometry" />
        </mxCell>
        <mxCell id="j5jPh3FzW7VEVjONXw4_-21" value="Game Engine:Unrela Engine 4" style="swimlane;startSize=60;fillColor=#CCCCCC;strokeColor=#FF9999;strokeWidth=3;" parent="j5jPh3FzW7VEVjONXw4_-23" vertex="1">
          <mxGeometry x="10" y="280" width="1390" height="790" as="geometry" />
        </mxCell>
        <mxCell id="j5jPh3FzW7VEVjONXw4_-78" value="Unreal Engine - Program Architecture" style="swimlane;startSize=40;horizontal=1;containerType=tree;fillColor=#E6E6E6;" parent="j5jPh3FzW7VEVjONXw4_-21" vertex="1">
          <mxGeometry x="10" y="70" width="530" height="710" as="geometry">
            <mxRectangle x="174.5" y="10" width="240" height="30" as="alternateBounds" />
          </mxGeometry>
        </mxCell>
        <mxCell id="j5jPh3FzW7VEVjONXw4_-27" value="Core" style="swimlane;startSize=20;horizontal=1;containerType=tree;" parent="j5jPh3FzW7VEVjONXw4_-78" vertex="1">
          <mxGeometry x="10" y="70" width="400" height="80" as="geometry" />
        </mxCell>
        <mxCell id="j5jPh3FzW7VEVjONXw4_-37" value="&lt;span style=&quot;font-weight: var(--base-text-weight-semibold,600); margin: 0px; padding: 0px; border: 0px; font-size: 15px; vertical-align: baseline; color: rgba(255, 255, 255, 0.95); font-family: -apple-system, BlinkMacSystemFont, &amp;quot;Segoe UI&amp;quot;, &amp;quot;Noto Sans&amp;quot;, Helvetica, Arial, sans-serif, &amp;quot;Apple Color Emoji&amp;quot;, &amp;quot;Segoe UI Emoji&amp;quot;; text-align: left; text-wrap: wrap; background-color: rgb(43, 46, 48);&quot;&gt;Threading&lt;/span&gt;" style="text;html=1;align=center;verticalAlign=middle;resizable=0;points=[];autosize=1;strokeColor=none;fillColor=none;" parent="j5jPh3FzW7VEVjONXw4_-27" vertex="1">
          <mxGeometry x="140" y="40" width="90" height="30" as="geometry" />
        </mxCell>
        <mxCell id="j5jPh3FzW7VEVjONXw4_-36" value="&lt;span style=&quot;font-weight: var(--base-text-weight-semibold,600); margin: 0px; padding: 0px; border: 0px; font-size: 15px; vertical-align: baseline; color: rgba(255, 255, 255, 0.95); font-family: -apple-system, BlinkMacSystemFont, &amp;quot;Segoe UI&amp;quot;, &amp;quot;Noto Sans&amp;quot;, Helvetica, Arial, sans-serif, &amp;quot;Apple Color Emoji&amp;quot;, &amp;quot;Segoe UI Emoji&amp;quot;; text-align: left; text-wrap: wrap; background-color: rgb(43, 46, 48);&quot;&gt;Base&amp;nbsp;&lt;/span&gt;&lt;span style=&quot;background-color: rgb(43, 46, 48); color: rgba(255, 255, 255, 0.95); font-family: -apple-system, BlinkMacSystemFont, &amp;quot;Segoe UI&amp;quot;, &amp;quot;Noto Sans&amp;quot;, Helvetica, Arial, sans-serif, &amp;quot;Apple Color Emoji&amp;quot;, &amp;quot;Segoe UI Emoji&amp;quot;; font-size: 15px; font-weight: var(--base-text-weight-semibold,600); text-align: left; text-wrap: wrap;&quot;&gt;Libraries&lt;/span&gt;" style="text;html=1;align=center;verticalAlign=middle;resizable=0;points=[];autosize=1;strokeColor=none;fillColor=none;" parent="j5jPh3FzW7VEVjONXw4_-27" vertex="1">
          <mxGeometry x="20" y="40" width="120" height="30" as="geometry" />
        </mxCell>
        <mxCell id="j5jPh3FzW7VEVjONXw4_-49" value="&lt;span style=&quot;font-weight: var(--base-text-weight-semibold,600); margin: 0px; padding: 0px; border: 0px; font-size: 15px; vertical-align: baseline; color: rgba(255, 255, 255, 0.95); font-family: -apple-system, BlinkMacSystemFont, &amp;quot;Segoe UI&amp;quot;, &amp;quot;Noto Sans&amp;quot;, Helvetica, Arial, sans-serif, &amp;quot;Apple Color Emoji&amp;quot;, &amp;quot;Segoe UI Emoji&amp;quot;; text-align: left; text-wrap: wrap; background-color: rgb(43, 46, 48);&quot;&gt;Platform&amp;nbsp;&lt;/span&gt;&lt;span style=&quot;background-color: rgb(43, 46, 48); color: rgba(255, 255, 255, 0.95); font-family: -apple-system, BlinkMacSystemFont, &amp;quot;Segoe UI&amp;quot;, &amp;quot;Noto Sans&amp;quot;, Helvetica, Arial, sans-serif, &amp;quot;Apple Color Emoji&amp;quot;, &amp;quot;Segoe UI Emoji&amp;quot;; font-size: 15px; font-weight: var(--base-text-weight-semibold,600); text-align: left; text-wrap: wrap;&quot;&gt;Abstraction&lt;/span&gt;" style="text;html=1;align=center;verticalAlign=middle;resizable=0;points=[];autosize=1;strokeColor=none;fillColor=none;" parent="j5jPh3FzW7VEVjONXw4_-27" vertex="1">
          <mxGeometry x="230" y="40" width="170" height="30" as="geometry" />
        </mxCell>
        <mxCell id="j5jPh3FzW7VEVjONXw4_-66" value="Editors" style="swimlane;startSize=20;horizontal=1;containerType=tree;" parent="j5jPh3FzW7VEVjONXw4_-78" vertex="1">
          <mxGeometry x="417.5" y="70" width="100" height="470" as="geometry" />
        </mxCell>
        <mxCell id="j5jPh3FzW7VEVjONXw4_-77" value="&lt;span style=&quot;font-weight: var(--base-text-weight-semibold,600); margin: 0px; padding: 0px; border: 0px; font-size: 15px; vertical-align: baseline; color: rgba(255, 255, 255, 0.95); font-family: -apple-system, BlinkMacSystemFont, &amp;quot;Segoe UI&amp;quot;, &amp;quot;Noto Sans&amp;quot;, Helvetica, Arial, sans-serif, &amp;quot;Apple Color Emoji&amp;quot;, &amp;quot;Segoe UI Emoji&amp;quot;; text-align: left; text-wrap: wrap; background-color: rgb(43, 46, 48);&quot;&gt;Toolset&lt;/span&gt;" style="text;html=1;align=center;verticalAlign=middle;resizable=0;points=[];autosize=1;strokeColor=none;fillColor=none;" parent="j5jPh3FzW7VEVjONXw4_-66" vertex="1">
          <mxGeometry x="10" y="35" width="70" height="30" as="geometry" />
        </mxCell>
        <mxCell id="j5jPh3FzW7VEVjONXw4_-76" value="&lt;h3 style=&quot;margin: 24px 0px 16px; padding: 0px; font-size: 1.25em; font-weight: var(--base-text-weight-semibold,600); border: 0px; vertical-align: baseline; line-height: 1.25; color: rgba(255, 255, 255, 0.95); font-family: -apple-system, BlinkMacSystemFont, &amp;quot;Segoe UI&amp;quot;, &amp;quot;Noto Sans&amp;quot;, Helvetica, Arial, sans-serif, &amp;quot;Apple Color Emoji&amp;quot;, &amp;quot;Segoe UI Emoji&amp;quot;; font-style: normal; font-variant-ligatures: normal; font-variant-caps: normal; letter-spacing: normal; orphans: 2; text-align: left; text-indent: 0px; text-transform: none; widows: 2; word-spacing: 0px; -webkit-text-stroke-width: 0px; white-space: normal; background-color: rgb(43, 46, 48); text-decoration-thickness: initial; text-decoration-style: initial; text-decoration-color: initial;&quot;&gt;Editors&lt;/h3&gt;" style="text;whiteSpace=wrap;html=1;" parent="j5jPh3FzW7VEVjONXw4_-66" vertex="1">
          <mxGeometry x="20" y="290" width="80" height="80" as="geometry" />
        </mxCell>
        <mxCell id="j5jPh3FzW7VEVjONXw4_-75" value="&lt;h3 style=&quot;margin: 24px 0px 16px; padding: 0px; font-size: 1.25em; font-weight: var(--base-text-weight-semibold,600); border: 0px; vertical-align: baseline; line-height: 1.25; color: rgba(255, 255, 255, 0.95); font-family: -apple-system, BlinkMacSystemFont, &amp;quot;Segoe UI&amp;quot;, &amp;quot;Noto Sans&amp;quot;, Helvetica, Arial, sans-serif, &amp;quot;Apple Color Emoji&amp;quot;, &amp;quot;Segoe UI Emoji&amp;quot;; text-align: left; text-wrap: wrap; background-color: rgb(43, 46, 48);&quot;&gt;Tools&lt;/h3&gt;" style="text;html=1;align=center;verticalAlign=middle;resizable=0;points=[];autosize=1;strokeColor=none;fillColor=none;" parent="j5jPh3FzW7VEVjONXw4_-66" vertex="1">
          <mxGeometry x="15" y="65" width="60" height="70" as="geometry" />
        </mxCell>
        <mxCell id="j5jPh3FzW7VEVjONXw4_-68" value="&lt;span style=&quot;font-weight: var(--base-text-weight-semibold,600); margin: 0px; padding: 0px; border: 0px; font-size: 15px; vertical-align: baseline; color: rgba(255, 255, 255, 0.95); font-family: -apple-system, BlinkMacSystemFont, &amp;quot;Segoe UI&amp;quot;, &amp;quot;Noto Sans&amp;quot;, Helvetica, Arial, sans-serif, &amp;quot;Apple Color Emoji&amp;quot;, &amp;quot;Segoe UI Emoji&amp;quot;; text-align: left; text-wrap: wrap; background-color: rgb(43, 46, 48);&quot;&gt;Blueprints&lt;/span&gt;" style="text;html=1;align=center;verticalAlign=middle;resizable=0;points=[];autosize=1;strokeColor=none;fillColor=none;rotation=0;" parent="j5jPh3FzW7VEVjONXw4_-66" vertex="1">
          <mxGeometry x="5" y="250" width="90" height="30" as="geometry" />
        </mxCell>
        <mxCell id="j5jPh3FzW7VEVjONXw4_-74" value="&lt;span style=&quot;font-weight: var(--base-text-weight-semibold,600); margin: 0px; padding: 0px; border: 0px; font-size: 15px; vertical-align: baseline; color: rgba(255, 255, 255, 0.95); font-family: -apple-system, BlinkMacSystemFont, &amp;quot;Segoe UI&amp;quot;, &amp;quot;Noto Sans&amp;quot;, Helvetica, Arial, sans-serif, &amp;quot;Apple Color Emoji&amp;quot;, &amp;quot;Segoe UI Emoji&amp;quot;; text-align: left; text-wrap: wrap; background-color: rgb(43, 46, 48);&quot;&gt;Plugins&lt;/span&gt;" style="text;html=1;align=center;verticalAlign=middle;resizable=0;points=[];autosize=1;strokeColor=none;fillColor=none;" parent="j5jPh3FzW7VEVjONXw4_-66" vertex="1">
          <mxGeometry x="10" y="150" width="70" height="30" as="geometry" />
        </mxCell>
        <mxCell id="j5jPh3FzW7VEVjONXw4_-73" value="&lt;span style=&quot;font-weight: var(--base-text-weight-semibold,600); margin: 0px; padding: 0px; border: 0px; font-size: 15px; vertical-align: baseline; color: rgba(255, 255, 255, 0.95); font-family: -apple-system, BlinkMacSystemFont, &amp;quot;Segoe UI&amp;quot;, &amp;quot;Noto Sans&amp;quot;, Helvetica, Arial, sans-serif, &amp;quot;Apple Color Emoji&amp;quot;, &amp;quot;Segoe UI Emoji&amp;quot;; text-align: left; text-wrap: wrap; background-color: rgb(43, 46, 48);&quot;&gt;Modules&lt;/span&gt;" style="text;html=1;align=center;verticalAlign=middle;resizable=0;points=[];autosize=1;strokeColor=none;fillColor=none;" parent="j5jPh3FzW7VEVjONXw4_-66" vertex="1">
          <mxGeometry x="10" y="200" width="80" height="30" as="geometry" />
        </mxCell>
        <mxCell id="j5jPh3FzW7VEVjONXw4_-50" value="Engine" style="swimlane;startSize=20;horizontal=1;containerType=tree;" parent="j5jPh3FzW7VEVjONXw4_-78" vertex="1">
          <mxGeometry x="10" y="170" width="400" height="180" as="geometry" />
        </mxCell>
        <mxCell id="j5jPh3FzW7VEVjONXw4_-51" value="&lt;span style=&quot;font-weight: var(--base-text-weight-semibold,600); margin: 0px; padding: 0px; border: 0px; font-size: 15px; vertical-align: baseline; color: rgba(255, 255, 255, 0.95); font-family: -apple-system, BlinkMacSystemFont, &amp;quot;Segoe UI&amp;quot;, &amp;quot;Noto Sans&amp;quot;, Helvetica, Arial, sans-serif, &amp;quot;Apple Color Emoji&amp;quot;, &amp;quot;Segoe UI Emoji&amp;quot;; text-align: left; text-wrap: wrap; background-color: rgb(43, 46, 48);&quot;&gt;Animation System&lt;/span&gt;" style="text;html=1;align=center;verticalAlign=middle;resizable=0;points=[];autosize=1;strokeColor=none;fillColor=none;" parent="j5jPh3FzW7VEVjONXw4_-50" vertex="1">
          <mxGeometry x="135" y="50" width="150" height="30" as="geometry" />
        </mxCell>
        <mxCell id="j5jPh3FzW7VEVjONXw4_-52" value="&lt;span style=&quot;font-weight: var(--base-text-weight-semibold,600); margin: 0px; padding: 0px; border: 0px; font-size: 15px; vertical-align: baseline; color: rgba(255, 255, 255, 0.95); font-family: -apple-system, BlinkMacSystemFont, &amp;quot;Segoe UI&amp;quot;, &amp;quot;Noto Sans&amp;quot;, Helvetica, Arial, sans-serif, &amp;quot;Apple Color Emoji&amp;quot;, &amp;quot;Segoe UI Emoji&amp;quot;; text-align: left; text-wrap: wrap; background-color: rgb(43, 46, 48);&quot;&gt;Renderer&lt;/span&gt;" style="text;html=1;align=center;verticalAlign=middle;resizable=0;points=[];autosize=1;strokeColor=none;fillColor=none;" parent="j5jPh3FzW7VEVjONXw4_-50" vertex="1">
          <mxGeometry x="35" y="40" width="90" height="30" as="geometry" />
        </mxCell>
        <mxCell id="j5jPh3FzW7VEVjONXw4_-53" value="&lt;span style=&quot;font-weight: var(--base-text-weight-semibold,600); margin: 0px; padding: 0px; border: 0px; font-size: 15px; vertical-align: baseline; color: rgba(255, 255, 255, 0.95); font-family: -apple-system, BlinkMacSystemFont, &amp;quot;Segoe UI&amp;quot;, &amp;quot;Noto Sans&amp;quot;, Helvetica, Arial, sans-serif, &amp;quot;Apple Color Emoji&amp;quot;, &amp;quot;Segoe UI Emoji&amp;quot;; text-align: left; text-wrap: wrap; background-color: rgb(43, 46, 48);&quot;&gt;Physics Engine&lt;/span&gt;" style="text;html=1;align=center;verticalAlign=middle;resizable=0;points=[];autosize=1;strokeColor=none;fillColor=none;" parent="j5jPh3FzW7VEVjONXw4_-50" vertex="1">
          <mxGeometry x="270" y="40" width="120" height="30" as="geometry" />
        </mxCell>
        <mxCell id="j5jPh3FzW7VEVjONXw4_-56" value="&lt;span style=&quot;font-weight: var(--base-text-weight-semibold,600); margin: 0px; padding: 0px; border: 0px; font-size: 15px; vertical-align: baseline; color: rgba(255, 255, 255, 0.95); font-family: -apple-system, BlinkMacSystemFont, &amp;quot;Segoe UI&amp;quot;, &amp;quot;Noto Sans&amp;quot;, Helvetica, Arial, sans-serif, &amp;quot;Apple Color Emoji&amp;quot;, &amp;quot;Segoe UI Emoji&amp;quot;; text-align: left; text-wrap: wrap; background-color: rgb(43, 46, 48);&quot;&gt;Audio Engine&lt;/span&gt;" style="text;html=1;align=center;verticalAlign=middle;resizable=0;points=[];autosize=1;strokeColor=none;fillColor=none;" parent="j5jPh3FzW7VEVjONXw4_-50" vertex="1">
          <mxGeometry x="275" y="120" width="110" height="30" as="geometry" />
        </mxCell>
        <mxCell id="j5jPh3FzW7VEVjONXw4_-57" value="&lt;span style=&quot;font-weight: var(--base-text-weight-semibold,600); margin: 0px; padding: 0px; border: 0px; font-size: 15px; vertical-align: baseline; color: rgba(255, 255, 255, 0.95); font-family: -apple-system, BlinkMacSystemFont, &amp;quot;Segoe UI&amp;quot;, &amp;quot;Noto Sans&amp;quot;, Helvetica, Arial, sans-serif, &amp;quot;Apple Color Emoji&amp;quot;, &amp;quot;Segoe UI Emoji&amp;quot;; text-align: left; text-wrap: wrap; background-color: rgb(43, 46, 48);&quot;&gt;Artificial Intelligence&lt;/span&gt;" style="text;html=1;align=center;verticalAlign=middle;resizable=0;points=[];autosize=1;strokeColor=none;fillColor=none;" parent="j5jPh3FzW7VEVjONXw4_-50" vertex="1">
          <mxGeometry y="110" width="160" height="30" as="geometry" />
        </mxCell>
        <mxCell id="j5jPh3FzW7VEVjONXw4_-58" value="&lt;span style=&quot;font-weight: var(--base-text-weight-semibold,600); margin: 0px; padding: 0px; border: 0px; font-size: 15px; vertical-align: baseline; color: rgba(255, 255, 255, 0.95); font-family: -apple-system, BlinkMacSystemFont, &amp;quot;Segoe UI&amp;quot;, &amp;quot;Noto Sans&amp;quot;, Helvetica, Arial, sans-serif, &amp;quot;Apple Color Emoji&amp;quot;, &amp;quot;Segoe UI Emoji&amp;quot;; text-align: left; text-wrap: wrap; background-color: rgb(43, 46, 48);&quot;&gt;Networking&lt;/span&gt;" style="text;html=1;align=center;verticalAlign=middle;resizable=0;points=[];autosize=1;strokeColor=none;fillColor=none;" parent="j5jPh3FzW7VEVjONXw4_-50" vertex="1">
          <mxGeometry x="160" y="120" width="100" height="30" as="geometry" />
        </mxCell>
        <mxCell id="j5jPh3FzW7VEVjONXw4_-59" value="Game Framework" style="swimlane;startSize=20;horizontal=1;containerType=tree;" parent="j5jPh3FzW7VEVjONXw4_-78" vertex="1">
          <mxGeometry x="10" y="370" width="400" height="170" as="geometry" />
        </mxCell>
        <mxCell id="j5jPh3FzW7VEVjONXw4_-60" value="&lt;span style=&quot;font-weight: var(--base-text-weight-semibold,600); margin: 0px; padding: 0px; border: 0px; font-size: 15px; vertical-align: baseline; color: rgba(255, 255, 255, 0.95); font-family: -apple-system, BlinkMacSystemFont, &amp;quot;Segoe UI&amp;quot;, &amp;quot;Noto Sans&amp;quot;, Helvetica, Arial, sans-serif, &amp;quot;Apple Color Emoji&amp;quot;, &amp;quot;Segoe UI Emoji&amp;quot;; text-align: left; text-wrap: wrap; background-color: rgb(43, 46, 48);&quot;&gt;Player Controllers&lt;/span&gt;" style="text;html=1;align=center;verticalAlign=middle;resizable=0;points=[];autosize=1;strokeColor=none;fillColor=none;" parent="j5jPh3FzW7VEVjONXw4_-59" vertex="1">
          <mxGeometry x="105" y="40" width="140" height="30" as="geometry" />
        </mxCell>
        <mxCell id="j5jPh3FzW7VEVjONXw4_-61" value="&lt;span style=&quot;font-weight: var(--base-text-weight-semibold,600); margin: 0px; padding: 0px; border: 0px; font-size: 15px; vertical-align: baseline; color: rgba(255, 255, 255, 0.95); font-family: -apple-system, BlinkMacSystemFont, &amp;quot;Segoe UI&amp;quot;, &amp;quot;Noto Sans&amp;quot;, Helvetica, Arial, sans-serif, &amp;quot;Apple Color Emoji&amp;quot;, &amp;quot;Segoe UI Emoji&amp;quot;; text-align: left; text-wrap: wrap; background-color: rgb(43, 46, 48);&quot;&gt;Game Modes&lt;/span&gt;" style="text;html=1;align=center;verticalAlign=middle;resizable=0;points=[];autosize=1;strokeColor=none;fillColor=none;" parent="j5jPh3FzW7VEVjONXw4_-59" vertex="1">
          <mxGeometry x="25" y="40" width="110" height="30" as="geometry" />
        </mxCell>
        <mxCell id="j5jPh3FzW7VEVjONXw4_-62" value="&lt;span style=&quot;font-weight: var(--base-text-weight-semibold,600); margin: 0px; padding: 0px; border: 0px; font-size: 15px; vertical-align: baseline; color: rgba(255, 255, 255, 0.95); font-family: -apple-system, BlinkMacSystemFont, &amp;quot;Segoe UI&amp;quot;, &amp;quot;Noto Sans&amp;quot;, Helvetica, Arial, sans-serif, &amp;quot;Apple Color Emoji&amp;quot;, &amp;quot;Segoe UI Emoji&amp;quot;; text-align: left; text-wrap: wrap; background-color: rgb(43, 46, 48);&quot;&gt;Game States&lt;/span&gt;" style="text;html=1;align=center;verticalAlign=middle;resizable=0;points=[];autosize=1;strokeColor=none;fillColor=none;" parent="j5jPh3FzW7VEVjONXw4_-59" vertex="1">
          <mxGeometry x="245" y="40" width="110" height="30" as="geometry" />
        </mxCell>
        <mxCell id="j5jPh3FzW7VEVjONXw4_-64" value="&lt;span style=&quot;font-weight: var(--base-text-weight-semibold,600); margin: 0px; padding: 0px; border: 0px; font-size: 15px; vertical-align: baseline; color: rgba(255, 255, 255, 0.95); font-family: -apple-system, BlinkMacSystemFont, &amp;quot;Segoe UI&amp;quot;, &amp;quot;Noto Sans&amp;quot;, Helvetica, Arial, sans-serif, &amp;quot;Apple Color Emoji&amp;quot;, &amp;quot;Segoe UI Emoji&amp;quot;; text-align: left; text-wrap: wrap; background-color: rgb(43, 46, 48);&quot;&gt;Game Levels&lt;/span&gt;" style="text;html=1;align=center;verticalAlign=middle;resizable=0;points=[];autosize=1;strokeColor=none;fillColor=none;" parent="j5jPh3FzW7VEVjONXw4_-59" vertex="1">
          <mxGeometry x="25" y="110" width="110" height="30" as="geometry" />
        </mxCell>
        <mxCell id="_sb38fBVZkPLiPHwWJfE-2" value="" style="rounded=0;whiteSpace=wrap;html=1;fillColor=#E6E6E6;strokeWidth=2;" parent="j5jPh3FzW7VEVjONXw4_-21" vertex="1">
          <mxGeometry x="550" y="70" width="830" height="710" as="geometry" />
        </mxCell>
        <mxCell id="_sb38fBVZkPLiPHwWJfE-8" value="Asset Libary" style="swimlane;whiteSpace=wrap;html=1;startSize=40;" parent="j5jPh3FzW7VEVjONXw4_-21" vertex="1">
          <mxGeometry x="550" y="470" width="440" height="310" as="geometry" />
        </mxCell>
        <mxCell id="_sb38fBVZkPLiPHwWJfE-9" value="AssetManagerEngine" style="shape=cube;whiteSpace=wrap;html=1;boundedLbl=1;backgroundOutline=1;darkOpacity=0.05;darkOpacity2=0.1;size=10;" parent="j5jPh3FzW7VEVjONXw4_-21" vertex="1">
          <mxGeometry x="567.5" y="90" width="172.5" height="80" as="geometry" />
        </mxCell>
        <mxCell id="_sb38fBVZkPLiPHwWJfE-11" value="PackingManagerEngine" style="shape=cube;whiteSpace=wrap;html=1;boundedLbl=1;backgroundOutline=1;darkOpacity=0.05;darkOpacity2=0.1;size=10;" parent="j5jPh3FzW7VEVjONXw4_-21" vertex="1">
          <mxGeometry x="571.25" y="190" width="172.5" height="80" as="geometry" />
        </mxCell>
        <mxCell id="SsFV9lfEsT5ky-LdXTRo-1" value="Event Manager Engine" style="swimlane;whiteSpace=wrap;html=1;startSize=40;" vertex="1" parent="j5jPh3FzW7VEVjONXw4_-21">
          <mxGeometry x="877.5" y="80" width="440" height="310" as="geometry" />
        </mxCell>
        <mxCell id="j5jPh3FzW7VEVjONXw4_-6" value="&lt;b style=&quot;background-color: rgb(235, 235, 235);&quot;&gt;ArtAsset&lt;/b&gt;" style="rounded=0;whiteSpace=wrap;html=1;" parent="1" vertex="1">
          <mxGeometry x="420" y="-510" width="120" height="60" as="geometry" />
        </mxCell>
        <mxCell id="j5jPh3FzW7VEVjONXw4_-93" value="Container" style="swimlane;" parent="1" vertex="1">
          <mxGeometry x="2610" y="-2150" width="200" height="200" as="geometry" />
        </mxCell>
        <mxCell id="j5jPh3FzW7VEVjONXw4_-98" value="" style="shape=datastore;whiteSpace=wrap;html=1;" parent="1" vertex="1">
          <mxGeometry x="3160" y="-1830" width="60" height="60" as="geometry" />
        </mxCell>
        <mxCell id="_sb38fBVZkPLiPHwWJfE-33" value="&lt;div style=&quot;text-align: left;&quot;&gt;&lt;span style=&quot;color: rgba(255, 255, 255, 0.95); font-family: -apple-system, BlinkMacSystemFont, &amp;quot;Segoe UI&amp;quot;, &amp;quot;Noto Sans&amp;quot;, Helvetica, Arial, sans-serif, &amp;quot;Apple Color Emoji&amp;quot;, &amp;quot;Segoe UI Emoji&amp;quot;; font-size: 15px; font-weight: 600; text-wrap: wrap; background-color: rgb(43, 46, 48);&quot;&gt;Pawn&lt;/span&gt;&lt;br&gt;&lt;/div&gt;" style="text;html=1;align=center;verticalAlign=middle;resizable=0;points=[];autosize=1;strokeColor=none;fillColor=none;" parent="1" vertex="1">
          <mxGeometry x="1050" y="-1142" width="60" height="30" as="geometry" />
        </mxCell>
        <mxCell id="SsFV9lfEsT5ky-LdXTRo-19" value="DataAPI" style="swimlane;fontStyle=0;childLayout=stackLayout;horizontal=1;startSize=26;fillColor=none;horizontalStack=0;resizeParent=1;resizeParentMax=0;resizeLast=0;collapsible=1;marginBottom=0;html=1;strokeColor=#009900;" vertex="1" parent="1">
          <mxGeometry x="2812.5" y="-1615" width="190" height="156" as="geometry" />
        </mxCell>
        <mxCell id="SsFV9lfEsT5ky-LdXTRo-20" value="3DLauncher" style="text;strokeColor=none;fillColor=none;align=left;verticalAlign=top;spacingLeft=4;spacingRight=4;overflow=hidden;rotatable=0;points=[[0,0.5],[1,0.5]];portConstraint=eastwest;whiteSpace=wrap;html=1;" vertex="1" parent="SsFV9lfEsT5ky-LdXTRo-19">
          <mxGeometry y="26" width="190" height="26" as="geometry" />
        </mxCell>
        <mxCell id="SsFV9lfEsT5ky-LdXTRo-21" value="Mycar" style="text;strokeColor=none;fillColor=#E6E6E6;align=left;verticalAlign=top;spacingLeft=4;spacingRight=4;overflow=hidden;rotatable=0;points=[[0,0.5],[1,0.5]];portConstraint=eastwest;whiteSpace=wrap;html=1;" vertex="1" parent="SsFV9lfEsT5ky-LdXTRo-19">
          <mxGeometry y="52" width="190" height="26" as="geometry" />
        </mxCell>
        <mxCell id="SsFV9lfEsT5ky-LdXTRo-22" value="Air" style="text;strokeColor=none;fillColor=none;align=left;verticalAlign=top;spacingLeft=4;spacingRight=4;overflow=hidden;rotatable=0;points=[[0,0.5],[1,0.5]];portConstraint=eastwest;whiteSpace=wrap;html=1;" vertex="1" parent="SsFV9lfEsT5ky-LdXTRo-19">
          <mxGeometry y="78" width="190" height="26" as="geometry" />
        </mxCell>
        <mxCell id="SsFV9lfEsT5ky-LdXTRo-23" value="Energy" style="text;strokeColor=none;fillColor=#E6E6E6;align=left;verticalAlign=top;spacingLeft=4;spacingRight=4;overflow=hidden;rotatable=0;points=[[0,0.5],[1,0.5]];portConstraint=eastwest;whiteSpace=wrap;html=1;" vertex="1" parent="SsFV9lfEsT5ky-LdXTRo-19">
          <mxGeometry y="104" width="190" height="26" as="geometry" />
        </mxCell>
        <mxCell id="SsFV9lfEsT5ky-LdXTRo-24" value="Seat" style="text;strokeColor=none;fillColor=none;align=left;verticalAlign=top;spacingLeft=4;spacingRight=4;overflow=hidden;rotatable=0;points=[[0,0.5],[1,0.5]];portConstraint=eastwest;whiteSpace=wrap;html=1;" vertex="1" parent="SsFV9lfEsT5ky-LdXTRo-19">
          <mxGeometry y="130" width="190" height="26" as="geometry" />
        </mxCell>
        <mxCell id="SsFV9lfEsT5ky-LdXTRo-28" value="OS_Android" style="swimlane;" vertex="1" parent="1">
          <mxGeometry x="3380" y="-1890" width="380" height="610" as="geometry" />
        </mxCell>
        <mxCell id="SsFV9lfEsT5ky-LdXTRo-33" value="&lt;table style=&quot;border-collapse:collapse;table-layout: fixed;width: 0;&quot;&gt;&lt;colgroup&gt;&lt;col width=&quot;384&quot; style=&quot;width: 384px;&quot;&gt;&lt;col width=&quot;104&quot; style=&quot;width: 104px;&quot;&gt;&lt;col width=&quot;61&quot; style=&quot;width: 61px;&quot;&gt;&lt;col width=&quot;74&quot; style=&quot;width: 74px;&quot;&gt;&lt;col width=&quot;46&quot; style=&quot;width: 46px;&quot;&gt;&lt;col width=&quot;213&quot; style=&quot;width: 213px;&quot;&gt;&lt;/colgroup&gt;&lt;tbody&gt;&lt;tr height=&quot;24&quot; style=&quot;mso-height-source:auto;height:24px;&quot;&gt;&lt;td style=&quot;background-color:#ffe9e8;font-size:10pt;color:#de3c36;border-top: .5pt solid #000000;border-right: .5pt solid #000000;border-bottom: .5pt solid #000000;vertical-align:middle;text-align:left;white-space:normal;width: 384px;&quot; width=&quot;384&quot;&gt;外饰_外部灯光_前大灯_LED大灯 打开&lt;/td&gt;&lt;td style=&quot;vertical-align:middle;text-align:center;white-space:no-wrap;width: 104px;&quot; width=&quot;104&quot;&gt;&lt;font style=&quot;font-size:10pt;font-family:Helvetica Neue, Helvetica, PingFang SC, Microsoft YaHei, Source Han Sans SC, Noto Sans CJK SC, WenQuanYi Micro Hei, sans-serif;color:#000000;&quot;&gt;@林奇&lt;/font&gt;&lt;/td&gt;&lt;td style=&quot;background-color:#319b62;font-size:10pt;vertical-align:middle;text-align:center;white-space:no-wrap;width: 61px;&quot; width=&quot;61&quot;&gt;2014430&lt;/td&gt;&lt;td style=&quot;font-size:10pt;vertical-align:middle;text-align:center;white-space:no-wrap;width: 74px;&quot; width=&quot;74&quot;&gt;&lt;/td&gt;&lt;td style=&quot;font-size:10pt;vertical-align:middle;text-align:center;white-space:no-wrap;width: 46px;&quot; width=&quot;46&quot;&gt;6&lt;/td&gt;&lt;td style=&quot;font-size:10pt;vertical-align:middle;text-align:center;white-space:no-wrap;width: 213px;&quot; width=&quot;213&quot;&gt;&lt;/td&gt;&lt;/tr&gt;&lt;tr height=&quot;24&quot; style=&quot;mso-height-source:auto;height:24px;&quot;&gt;&lt;td style=&quot;background-color:#ffe9e8;font-size:10pt;color:#de3c36;border-top: .5pt solid #000000;border-right: .5pt solid #000000;border-bottom: .5pt solid #000000;vertical-align:middle;text-align:left;white-space:normal;width: 384px;&quot; width=&quot;384&quot;&gt;外饰_外部灯光_前大灯_LED大灯 关闭&lt;/td&gt;&lt;td style=&quot;vertical-align:middle;text-align:center;white-space:no-wrap;width: 104px;&quot; width=&quot;104&quot;&gt;&lt;font style=&quot;font-size:10pt;font-family:Helvetica Neue, Helvetica, PingFang SC, Microsoft YaHei, Source Han Sans SC, Noto Sans CJK SC, WenQuanYi Micro Hei, sans-serif;color:#000000;&quot;&gt;@林奇&lt;/font&gt;&lt;/td&gt;&lt;td style=&quot;background-color:#319b62;font-size:10pt;vertical-align:middle;text-align:center;white-space:no-wrap;width: 61px;&quot; width=&quot;61&quot;&gt;2014430&lt;/td&gt;&lt;td style=&quot;font-size:10pt;vertical-align:middle;text-align:center;white-space:no-wrap;width: 74px;&quot; width=&quot;74&quot;&gt;&lt;/td&gt;&lt;td style=&quot;font-size:10pt;vertical-align:middle;text-align:center;white-space:no-wrap;width: 46px;&quot; width=&quot;46&quot;&gt;7&lt;/td&gt;&lt;td style=&quot;font-size:10pt;vertical-align:middle;text-align:center;white-space:no-wrap;width: 213px;&quot; width=&quot;213&quot;&gt;&lt;/td&gt;&lt;/tr&gt;&lt;tr height=&quot;24&quot; style=&quot;mso-height-source:auto;height:24px;&quot;&gt;&lt;td style=&quot;background-color:#ffe9e8;font-size:10pt;color:#de3c36;border-top: .5pt solid #000000;border-right: .5pt solid #000000;border-bottom: .5pt solid #000000;vertical-align:middle;text-align:left;white-space:normal;width: 384px;&quot; width=&quot;384&quot;&gt;外饰_外部灯光_前大灯_转向辅助灯 打开&lt;/td&gt;&lt;td style=&quot;vertical-align:middle;text-align:center;white-space:no-wrap;width: 104px;&quot; width=&quot;104&quot;&gt;&lt;font style=&quot;font-size:10pt;font-family:Helvetica Neue, Helvetica, PingFang SC, Microsoft YaHei, Source Han Sans SC, Noto Sans CJK SC, WenQuanYi Micro Hei, sans-serif;color:#000000;&quot;&gt;@林奇&lt;/font&gt;&lt;/td&gt;&lt;td style=&quot;background-color:#319b62;font-size:10pt;vertical-align:middle;text-align:center;white-space:no-wrap;width: 61px;&quot; width=&quot;61&quot;&gt;2014450&lt;/td&gt;&lt;td style=&quot;font-size:10pt;vertical-align:middle;text-align:center;white-space:no-wrap;width: 74px;&quot; width=&quot;74&quot;&gt;&lt;/td&gt;&lt;td style=&quot;font-size:10pt;vertical-align:middle;text-align:center;white-space:no-wrap;width: 46px;&quot; width=&quot;46&quot;&gt;6&lt;/td&gt;&lt;td style=&quot;font-size:10pt;vertical-align:middle;text-align:center;white-space:no-wrap;width: 213px;&quot; width=&quot;213&quot;&gt;&lt;/td&gt;&lt;/tr&gt;&lt;tr height=&quot;24&quot; style=&quot;mso-height-source:auto;height:24px;&quot;&gt;&lt;td style=&quot;background-color:#ffe9e8;font-size:10pt;color:#de3c36;border-top: .5pt solid #000000;border-right: .5pt solid #000000;border-bottom: .5pt solid #000000;vertical-align:middle;text-align:left;white-space:normal;width: 384px;&quot; width=&quot;384&quot;&gt;外饰_外部灯光_前大灯_转向辅助灯 关闭&lt;/td&gt;&lt;td style=&quot;vertical-align:middle;text-align:center;white-space:no-wrap;width: 104px;&quot; width=&quot;104&quot;&gt;&lt;font style=&quot;font-size:10pt;font-family:Helvetica Neue, Helvetica, PingFang SC, Microsoft YaHei, Source Han Sans SC, Noto Sans CJK SC, WenQuanYi Micro Hei, sans-serif;color:#000000;&quot;&gt;@林奇&lt;/font&gt;&lt;/td&gt;&lt;td style=&quot;background-color:#319b62;font-size:10pt;vertical-align:middle;text-align:center;white-space:no-wrap;width: 61px;&quot; width=&quot;61&quot;&gt;2014450&lt;/td&gt;&lt;td style=&quot;font-size:10pt;vertical-align:middle;text-align:center;white-space:no-wrap;width: 74px;&quot; width=&quot;74&quot;&gt;&lt;/td&gt;&lt;td style=&quot;font-size:10pt;vertical-align:middle;text-align:center;white-space:no-wrap;width: 46px;&quot; width=&quot;46&quot;&gt;7&lt;/td&gt;&lt;td style=&quot;font-size:10pt;vertical-align:middle;text-align:center;white-space:no-wrap;width: 213px;&quot; width=&quot;213&quot;&gt;&lt;/td&gt;&lt;/tr&gt;&lt;tr height=&quot;24&quot; style=&quot;mso-height-source:auto;height:24px;&quot;&gt;&lt;td style=&quot;background-color:#ffeead;font-size:11pt;border-top: .5pt solid #000000;border-right: .5pt solid #000000;border-bottom: .5pt solid #000000;vertical-align:middle;text-align:left;white-space:normal;width: 384px;&quot; width=&quot;384&quot;&gt;外饰_外部灯光_前大灯_双闪灯 打开&lt;/td&gt;&lt;td style=&quot;vertical-align:middle;text-align:center;white-space:no-wrap;width: 104px;&quot; width=&quot;104&quot;&gt;&lt;font style=&quot;font-size:10pt;font-family:Helvetica Neue, Helvetica, PingFang SC, Microsoft YaHei, Source Han Sans SC, Noto Sans CJK SC, WenQuanYi Micro Hei, sans-serif;color:#000000;&quot;&gt;@林奇&lt;/font&gt;&lt;/td&gt;&lt;td style=&quot;background-color:#319b62;font-size:10pt;vertical-align:middle;text-align:center;white-space:no-wrap;width: 61px;&quot; width=&quot;61&quot;&gt;2014430&lt;/td&gt;&lt;td style=&quot;font-size:10pt;vertical-align:middle;text-align:center;white-space:no-wrap;width: 74px;&quot; width=&quot;74&quot;&gt;&lt;/td&gt;&lt;td style=&quot;font-size:10pt;vertical-align:middle;text-align:center;white-space:no-wrap;width: 46px;&quot; width=&quot;46&quot;&gt;6&lt;/td&gt;&lt;td style=&quot;font-size:10pt;vertical-align:middle;text-align:center;white-space:no-wrap;width: 213px;&quot; width=&quot;213&quot;&gt;&lt;/td&gt;&lt;/tr&gt;&lt;tr height=&quot;24&quot; style=&quot;mso-height-source:auto;height:24px;&quot;&gt;&lt;td style=&quot;background-color:#ffeead;font-size:11pt;border-top: .5pt solid #000000;border-right: .5pt solid #000000;border-bottom: .5pt solid #000000;vertical-align:middle;text-align:left;white-space:normal;width: 384px;&quot; width=&quot;384&quot;&gt;外饰_外部灯光_前大灯_双闪灯 关闭&lt;/td&gt;&lt;td style=&quot;vertical-align:middle;text-align:center;white-space:no-wrap;width: 104px;&quot; width=&quot;104&quot;&gt;&lt;font style=&quot;font-size:10pt;font-family:Helvetica Neue, Helvetica, PingFang SC, Microsoft YaHei, Source Han Sans SC, Noto Sans CJK SC, WenQuanYi Micro Hei, sans-serif;color:#000000;&quot;&gt;@林奇&lt;/font&gt;&lt;/td&gt;&lt;td style=&quot;background-color:#319b62;font-size:10pt;vertical-align:middle;text-align:center;white-space:no-wrap;width: 61px;&quot; width=&quot;61&quot;&gt;2014430&lt;/td&gt;&lt;td style=&quot;font-size:10pt;vertical-align:middle;text-align:center;white-space:no-wrap;width: 74px;&quot; width=&quot;74&quot;&gt;&lt;/td&gt;&lt;td style=&quot;font-size:10pt;vertical-align:middle;text-align:center;white-space:no-wrap;width: 46px;&quot; width=&quot;46&quot;&gt;7&lt;/td&gt;&lt;td style=&quot;font-size:10pt;vertical-align:middle;text-align:center;white-space:no-wrap;width: 213px;&quot; width=&quot;213&quot;&gt;&lt;/td&gt;&lt;/tr&gt;&lt;tr height=&quot;24&quot; style=&quot;mso-height-source:auto;height:24px;&quot;&gt;&lt;td style=&quot;background-color:#ffeead;font-size:11pt;border-top: .5pt solid #000000;border-right: .5pt solid #000000;border-bottom: .5pt solid #000000;vertical-align:middle;text-align:left;white-space:normal;width: 384px;&quot; width=&quot;384&quot;&gt;外饰_外部灯光_日间行车灯 打开&lt;/td&gt;&lt;td style=&quot;vertical-align:middle;text-align:center;white-space:no-wrap;width: 104px;&quot; width=&quot;104&quot;&gt;&lt;font style=&quot;font-size:10pt;font-family:Helvetica Neue, Helvetica, PingFang SC, Microsoft YaHei, Source Han Sans SC, Noto Sans CJK SC, WenQuanYi Micro Hei, sans-serif;color:#000000;&quot;&gt;@林奇&lt;/font&gt;&lt;/td&gt;&lt;td style=&quot;background-color:#319b62;font-size:10pt;vertical-align:middle;text-align:center;white-space:no-wrap;width: 61px;&quot; width=&quot;61&quot;&gt;2014420&lt;/td&gt;&lt;td style=&quot;font-size:10pt;vertical-align:middle;text-align:center;white-space:no-wrap;width: 74px;&quot; width=&quot;74&quot;&gt;&lt;/td&gt;&lt;td style=&quot;font-size:10pt;vertical-align:middle;text-align:center;white-space:no-wrap;width: 46px;&quot; width=&quot;46&quot;&gt;6&lt;/td&gt;&lt;td style=&quot;font-size:10pt;vertical-align:middle;text-align:center;white-space:no-wrap;width: 213px;&quot; width=&quot;213&quot;&gt;&lt;/td&gt;&lt;/tr&gt;&lt;tr height=&quot;24&quot; style=&quot;mso-height-source:auto;height:24px;&quot;&gt;&lt;td style=&quot;background-color:#ffeead;font-size:11pt;border-top: .5pt solid #000000;border-right: .5pt solid #000000;border-bottom: .5pt solid #000000;vertical-align:middle;text-align:left;white-space:normal;width: 384px;&quot; width=&quot;384&quot;&gt;外饰_外部灯光_日间行车灯 关闭&lt;/td&gt;&lt;td style=&quot;vertical-align:middle;text-align:center;white-space:no-wrap;width: 104px;&quot; width=&quot;104&quot;&gt;&lt;font style=&quot;font-size:10pt;font-family:Helvetica Neue, Helvetica, PingFang SC, Microsoft YaHei, Source Han Sans SC, Noto Sans CJK SC, WenQuanYi Micro Hei, sans-serif;color:#000000;&quot;&gt;@林奇&lt;/font&gt;&lt;/td&gt;&lt;td style=&quot;background-color:#319b62;font-size:10pt;vertical-align:middle;text-align:center;white-space:no-wrap;width: 61px;&quot; width=&quot;61&quot;&gt;2014420&lt;/td&gt;&lt;td style=&quot;font-size:10pt;vertical-align:middle;text-align:center;white-space:no-wrap;width: 74px;&quot; width=&quot;74&quot;&gt;&lt;/td&gt;&lt;td style=&quot;font-size:10pt;vertical-align:middle;text-align:center;white-space:no-wrap;width: 46px;&quot; width=&quot;46&quot;&gt;7&lt;/td&gt;&lt;td style=&quot;font-size:10pt;vertical-align:middle;text-align:center;white-space:no-wrap;width: 213px;&quot; width=&quot;213&quot;&gt;&lt;/td&gt;&lt;/tr&gt;&lt;/tbody&gt;&lt;/table&gt;" style="text;whiteSpace=wrap;html=1;fillColor=#E6E6E6;" vertex="1" parent="1">
          <mxGeometry x="2520" y="-1290" width="670" height="220" as="geometry" />
        </mxCell>
        <mxCell id="SsFV9lfEsT5ky-LdXTRo-34" style="edgeStyle=orthogonalEdgeStyle;rounded=0;orthogonalLoop=1;jettySize=auto;html=1;exitX=1;exitY=0.5;exitDx=0;exitDy=0;entryX=0.5;entryY=0;entryDx=0;entryDy=0;" edge="1" parent="1" source="SsFV9lfEsT5ky-LdXTRo-21" target="SsFV9lfEsT5ky-LdXTRo-33">
          <mxGeometry relative="1" as="geometry" />
        </mxCell>
        <mxCell id="SsFV9lfEsT5ky-LdXTRo-31" style="edgeStyle=orthogonalEdgeStyle;rounded=0;orthogonalLoop=1;jettySize=auto;html=1;entryX=0;entryY=0.5;entryDx=0;entryDy=0;strokeWidth=4;fillColor=#d5e8d4;strokeColor=#009900;dashed=1;shape=link;exitX=1;exitY=0.25;exitDx=0;exitDy=0;dashPattern=1 1;" edge="1" parent="1" source="SsFV9lfEsT5ky-LdXTRo-1" target="SsFV9lfEsT5ky-LdXTRo-29">
          <mxGeometry relative="1" as="geometry" />
        </mxCell>
      </root>
    </mxGraphModel>
  </diagram>
</mxfile>
